# xmcd CD database file
#
# Track frame offsets:
#	150
#	15212
#	32102
#	46150
#	62175
#	81045
#	95660
#	108920
#	122837
#	140667
#	151247
#	157650
#	176725
#	189572
#	205760
#	219307
#	227167
#
# Disc length: 3280 seconds
#
# Revision: 5
# Processed by: cddbd v1.5.2PL0 Copyright (c) Steve Scherf et al.
# Submitted via: CDex 1.51
#
DISCID=d90cce11
DTITLE=Muddy Waters and Memphis Slim - Muddy Waters and Memphis Slim
DYEAR=1995
DGENRE=Blues
TTITLE0=Hoochie Coochie Man - Muddy Waters
TTITLE1=Walkin' Thru The Park - Muddy Waters
TTITLE2=Boogie Woogie Memphis - Memphis Slim
TTITLE3=Rollin' And Tumbin' - Memphis Slim
TTITLE4=How Long (Live) - Memphis Slim
TTITLE5=Rock Me - Muddy Waters
TTITLE6=Blow Wind Blow - Muddy Waters
TTITLE7=John Henry - Memphis Slim
TTITLE8=Stack Alee - Memphis Slim
TTITLE9=How Long - Memphis Slim
TTITLE10=All This Piano Boogie - Memphis Slim
TTITLE11=Bye Bye Baby - Memphis Slim
TTITLE12=Love My Baby - Memphis Slim
TTITLE13=When The Sun Goes Down - Memphis Slim
TTITLE14=Some Day Baby - Memphis Slim
TTITLE15=Slim's Slow Blues - Memphis Slim
TTITLE16=Gee Ain't It Hard To Find Somebody - Memphis Slim
EXTD=YEAR: 1995
EXTT0=Muddy Waters
EXTT1=Muddy Waters
EXTT2=Memphis Slim
EXTT3=Memphis Slim
EXTT4=Memphis Slim
EXTT5=Muddy Waters
EXTT6=Muddy Waters
EXTT7=Memphis Slim
EXTT8=Memphis Slim
EXTT9=Memphis Slim
EXTT10=MemphisSlim
EXTT11=Memphis Slim
EXTT12=Memphis Slim
EXTT13=Memphis Slim
EXTT14=Memphis Slim
EXTT15=Memphis Slim
EXTT16=Memphis Slim
PLAYORDER=
